<svg xmlns="http://www.w3.org/2000/svg" width="548" height="588" font-family="ui-sans-serif, system-ui, sans-serif"><rect width="548" height="588" fill="#ffffff"/><text x="150" y="30" font-size="16" font-weight="600" fill="#0f172a">Domain confusion matrix (classical)</text><text x="334" y="52" font-size="11" fill="#475569" text-anchor="middle">predicted</text><text x="173" y="64" font-size="9" fill="#475569" text-anchor="middle">CardioNeuro</text><text x="219" y="64" font-size="9" fill="#475569" text-anchor="middle">GI/Urinary</text><text x="265" y="64" font-size="9" fill="#475569" text-anchor="middle">Infection</text><text x="311" y="64" font-size="9" fill="#475569" text-anchor="middle">Metabolic</text><text x="357" y="64" font-size="9" fill="#475569" text-anchor="middle">Musculo</text><text x="403" y="64" font-size="9" fill="#475569" text-anchor="middle">NoDomain</text><text x="449" y="64" font-size="9" fill="#475569" text-anchor="middle">Respiratory</text><text x="495" y="64" font-size="9" fill="#475569" text-anchor="middle">Skin/Med</text><text x="142" y="96" font-size="9" fill="#475569" text-anchor="end">CardioNeuro</text><rect x="150" y="70" width="44" height="44" rx="4" fill="rgba(16, 122, 87, 0.625)"/><text x="172" y="96" font-size="11" fill="#ffffff" text-anchor="middle">38</text><rect x="196" y="70" width="44" height="44" rx="4" fill="#f1f5f9"/><rect x="242" y="70" width="44" height="44" rx="4" fill="#f1f5f9"/><rect x="288" y="70" width="44" height="44" rx="4" fill="#f1f5f9"/><rect x="334" y="70" width="44" height="44" rx="4" fill="#f1f5f9"/><rect x="380" y="70" width="44" height="44" rx="4" fill="#f1f5f9"/><rect x="426" y="70" width="44" height="44" rx="4" fill="#f1f5f9"/><rect x="472" y="70" width="44" height="44" rx="4" fill="#f1f5f9"/><text x="142" y="142" font-size="9" fill="#475569" text-anchor="end">GI/Urinary</text><rect x="150" y="116" width="44" height="44" rx="4" fill="#f1f5f9"/><rect x="196" y="116" width="44" height="44" rx="4" fill="rgba(16, 122, 87, 0.6)"/><text x="218" y="142" font-size="11" fill="#ffffff" text-anchor="middle">36</text><rect x="242" y="116" width="44" height="44" rx="4" fill="#f1f5f9"/><rect x="288" y="116" width="44" height="44" rx="4" fill="#f1f5f9"/><rect x="334" y="116" width="44" height="44" rx="4" fill="#f1f5f9"/><rect x="380" y="116" width="44" height="44" rx="4" fill="rgba(190, 70, 70, 0.16166666666666665)"/><text x="402" y="142" font-size="11" fill="#0f172a" text-anchor="middle">1</text><rect x="426" y="116" width="44" height="44" rx="4" fill="rgba(190, 70, 70, 0.16166666666666665)"/><text x="448" y="142" font-size="11" fill="#0f172a" text-anchor="middle">1</text><rect x="472" y="116" width="44" height="44" rx="4" fill="#f1f5f9"/><text x="142" y="188" font-size="9" fill="#475569" text-anchor="end">Infection</text><rect x="150" y="162" width="44" height="44" rx="4" fill="#f1f5f9"/><rect x="196" y="162" width="44" height="44" rx="4" fill="#f1f5f9"/><rect x="242" y="162" width="44" height="44" rx="4" fill="rgba(16, 122, 87, 0.7125)"/><text x="264" y="188" font-size="11" fill="#ffffff" text-anchor="middle">45</text><rect x="288" y="162" width="44" height="44" rx="4" fill="#f1f5f9"/><rect x="334" y="162" width="44" height="44" rx="4" fill="rgba(190, 70, 70, 0.16166666666666665)"/><text x="356" y="188" font-size="11" fill="#0f172a" text-anchor="middle">1</text><rect x="380" y="162" width="44" height="44" rx="4" fill="#f1f5f9"/><rect x="426" y="162" width="44" height="44" rx="4" fill="#f1f5f9"/><rect x="472" y="162" width="44" height="44" rx="4" fill="rgba(190, 70, 70, 0.16166666666666665)"/><text x="494" y="188" font-size="11" fill="#0f172a" text-anchor="middle">1</text><text x="142" y="234" font-size="9" fill="#475569" text-anchor="end">Metabolic</text><rect x="150" y="208" width="44" height="44" rx="4" fill="#f1f5f9"/><rect x="196" y="208" width="44" height="44" rx="4" fill="rgba(190, 70, 70, 0.17333333333333334)"/><text x="218" y="234" font-size="11" fill="#0f172a" text-anchor="middle">2</text><rect x="242" y="208" width="44" height="44" rx="4" fill="#f1f5f9"/><rect x="288" y="208" width="44" height="44" rx="4" fill="rgba(16, 122, 87, 0.4375)"/><text x="310" y="234" font-size="11" fill="#0f172a" text-anchor="middle">23</text><rect x="334" y="208" width="44" height="44" rx="4" fill="#f1f5f9"/><rect x="380" y="208" width="44" height="44" rx="4" fill="#f1f5f9"/><rect x="426" y="208" width="44" height="44" rx="4" fill="#f1f5f9"/><rect x="472" y="208" width="44" height="44" rx="4" fill="#f1f5f9"/><text x="142" y="280" font-size="9" fill="#475569" text-anchor="end">Musculo</text><rect x="150" y="254" width="44" height="44" rx="4" fill="#f1f5f9"/><rect x="196" y="254" width="44" height="44" rx="4" fill="#f1f5f9"/><rect x="242" y="254" width="44" height="44" rx="4" fill="#f1f5f9"/><rect x="288" y="254" width="44" height="44" rx="4" fill="#f1f5f9"/><rect x="334" y="254" width="44" height="44" rx="4" fill="rgba(16, 122, 87, 0.5125)"/><text x="356" y="280" font-size="11" fill="#0f172a" text-anchor="middle">29</text><rect x="380" y="254" width="44" height="44" rx="4" fill="#f1f5f9"/><rect x="426" y="254" width="44" height="44" rx="4" fill="#f1f5f9"/><rect x="472" y="254" width="44" height="44" rx="4" fill="#f1f5f9"/><text x="142" y="326" font-size="9" fill="#475569" text-anchor="end">NoDomain</text><rect x="150" y="300" width="44" height="44" rx="4" fill="#f1f5f9"/><rect x="196" y="300" width="44" height="44" rx="4" fill="#f1f5f9"/><rect x="242" y="300" width="44" height="44" rx="4" fill="#f1f5f9"/><rect x="288" y="300" width="44" height="44" rx="4" fill="#f1f5f9"/><rect x="334" y="300" width="44" height="44" rx="4" fill="#f1f5f9"/><rect x="380" y="300" width="44" height="44" rx="4" fill="rgba(16, 122, 87, 0.9)"/><text x="402" y="326" font-size="11" fill="#ffffff" text-anchor="middle">60</text><rect x="426" y="300" width="44" height="44" rx="4" fill="#f1f5f9"/><rect x="472" y="300" width="44" height="44" rx="4" fill="#f1f5f9"/><text x="142" y="372" font-size="9" fill="#475569" text-anchor="end">Respiratory</text><rect x="150" y="346" width="44" height="44" rx="4" fill="#f1f5f9"/><rect x="196" y="346" width="44" height="44" rx="4" fill="#f1f5f9"/><rect x="242" y="346" width="44" height="44" rx="4" fill="#f1f5f9"/><rect x="288" y="346" width="44" height="44" rx="4" fill="#f1f5f9"/><rect x="334" y="346" width="44" height="44" rx="4" fill="#f1f5f9"/><rect x="380" y="346" width="44" height="44" rx="4" fill="#f1f5f9"/><rect x="426" y="346" width="44" height="44" rx="4" fill="rgba(16, 122, 87, 0.7500000000000001)"/><text x="448" y="372" font-size="11" fill="#ffffff" text-anchor="middle">48</text><rect x="472" y="346" width="44" height="44" rx="4" fill="rgba(190, 70, 70, 0.16166666666666665)"/><text x="494" y="372" font-size="11" fill="#0f172a" text-anchor="middle">1</text><text x="142" y="418" font-size="9" fill="#475569" text-anchor="end">Skin/Med</text><rect x="150" y="392" width="44" height="44" rx="4" fill="#f1f5f9"/><rect x="196" y="392" width="44" height="44" rx="4" fill="#f1f5f9"/><rect x="242" y="392" width="44" height="44" rx="4" fill="rgba(190, 70, 70, 0.16166666666666665)"/><text x="264" y="418" font-size="11" fill="#0f172a" text-anchor="middle">1</text><rect x="288" y="392" width="44" height="44" rx="4" fill="#f1f5f9"/><rect x="334" y="392" width="44" height="44" rx="4" fill="#f1f5f9"/><rect x="380" y="392" width="44" height="44" rx="4" fill="#f1f5f9"/><rect x="426" y="392" width="44" height="44" rx="4" fill="#f1f5f9"/><rect x="472" y="392" width="44" height="44" rx="4" fill="rgba(16, 122, 87, 0.7125)"/><text x="494" y="418" font-size="11" fill="#ffffff" text-anchor="middle">45</text><text x="150" y="468" font-size="11" fill="#475569">rows are actual labels, columns are predicted labels</text></svg>