<svg xmlns="http://www.w3.org/2000/svg" width="640" height="360" font-family="ui-sans-serif, system-ui, sans-serif"><rect width="640" height="360" fill="#ffffff"/><text x="70" y="30" font-size="16" font-weight="600" fill="#0f172a">Training set size vs performance</text><line x1="70" y1="300" x2="610" y2="300" stroke="#e2e8f0" stroke-width="1"/><text x="62" y="303" font-size="10" fill="#475569" text-anchor="end">0.88</text><line x1="70" y1="240.0000000000001" x2="610" y2="240.0000000000001" stroke="#e2e8f0" stroke-width="1"/><text x="62" y="243.0000000000001" font-size="10" fill="#475569" text-anchor="end">0.91</text><line x1="70" y1="180" x2="610" y2="180" stroke="#e2e8f0" stroke-width="1"/><text x="62" y="183" font-size="10" fill="#475569" text-anchor="end">0.94</text><line x1="70" y1="119.99999999999989" x2="610" y2="119.99999999999989" stroke="#e2e8f0" stroke-width="1"/><text x="62" y="122.99999999999989" font-size="10" fill="#475569" text-anchor="end">0.97</text><line x1="70" y1="60" x2="610" y2="60" stroke="#e2e8f0" stroke-width="1"/><text x="62" y="63" font-size="10" fill="#475569" text-anchor="end">1.00</text><text x="70" y="318" font-size="10" fill="#475569" text-anchor="middle">599</text><text x="160" y="318" font-size="10" fill="#475569" text-anchor="middle">1498</text><text x="310.0667408231368" y="318" font-size="10" fill="#475569" text-anchor="middle">2997</text><text x="460.0333704115684" y="318" font-size="10" fill="#475569" text-anchor="middle">4495</text><text x="610" y="318" font-size="10" fill="#475569" text-anchor="middle">5993</text><text x="340" y="342" font-size="11" fill="#475569" text-anchor="middle">training rows</text><path d="M70,183.9393104040833 L160,126.50402021682515 L310.0667408231368,114.41238017740244 L460.0333704115684,111.38947016754673 L610,108.366560157691" fill="none" stroke="#107a57" stroke-width="2.5"/><circle cx="70" cy="183.9393104040833" r="3.5" fill="#107a57"/><circle cx="160" cy="126.50402021682515" r="3.5" fill="#107a57"/><circle cx="310.0667408231368" cy="114.41238017740244" r="3.5" fill="#107a57"/><circle cx="460.0333704115684" cy="111.38947016754673" r="3.5" fill="#107a57"/><circle cx="610" cy="108.366560157691" r="3.5" fill="#107a57"/><rect x="460" y="30" width="12" height="12" rx="2" fill="#107a57"/><text x="476" y="40" font-size="11" fill="#0f172a">accuracy</text><path d="M70,199.63938767279097 L160,133.64200334603325 L310.0667408231368,118.57214772458485 L460.0333704115684,118.19196810350999 L610,112.61349291622423" fill="none" stroke="#2563eb" stroke-width="2.5"/><circle cx="70" cy="199.63938767279097" r="3.5" fill="#2563eb"/><circle cx="160" cy="133.64200334603325" r="3.5" fill="#2563eb"/><circle cx="310.0667408231368" cy="118.57214772458485" r="3.5" fill="#2563eb"/><circle cx="460.0333704115684" cy="118.19196810350999" r="3.5" fill="#2563eb"/><circle cx="610" cy="112.61349291622423" r="3.5" fill="#2563eb"/><rect x="460" y="48" width="12" height="12" rx="2" fill="#2563eb"/><text x="476" y="58" font-size="11" fill="#0f172a">macro-F1</text></svg>